<?xml version="1.0" encoding="UTF-8"?>
<svg id="Layer_1" xmlns="http://www.w3.org/2000/svg" version="1.1" viewBox="0 0 20 20">
  <!-- Generator: Adobe Illustrator 29.0.0, SVG Export Plug-In . SVG Version: 2.1.0 Build 186)  -->
  <defs>
    <style>
      .st0 {
        fill: #3b64d3;
        stroke: #3b64d3;
        stroke-miterlimit: 10;
        stroke-width: 0px;
      }
    </style>
  </defs>
  <path class="st0" d="M6.9,0h7.9c.4,0,.8.3,1,.6.1.2.1.5.1.8v14.9c0,.3,0,.6-.1.8-.2.4-.6.6-1,.6H2.7c-.5-.1-.8-.6-.8-1.1V5.1h3.5c.5,0,.9-.2,1.2-.6.2-.3.4-.7.4-1.1-.1-1.1-.1-2.2-.1-3.4M5,7.5c-.2,0-.3.3-.3.5,0,.3.3.5.6.5h7.6c.3,0,.6-.3.5-.7-.1-.2-.3-.4-.5-.4h-7.6c0,0-.2,0-.3,0M5.1,10.3c-.2.1-.4.3-.4.5,0,.3.3.5.6.5h7.6c.3,0,.5-.2.6-.5,0-.3-.3-.6-.6-.6h-7.6q0,.1-.2.1M5.1,13c-.2.1-.4.3-.4.5,0,.3.3.5.5.5h3.8c.3,0,.5-.2.6-.5,0-.3-.2-.6-.5-.6h-3.7c-.1,0-.2,0-.3.1h0Z"/>
  <path class="st0" d="M5.6.1c.3-.1.6.1.6.4v3c0,.3,0,.6-.4.8,0,0-.3.2-.6.2h-2.9c-.2,0-.4-.2-.5-.4,0-.2,0-.3.2-.5,1.1-1.1,2.2-2.2,3.2-3.2.2,0,.3-.3.4-.3h0Z"/>
  <path class="st0" d="M16.5,2.3c.4,0,.7,0,1.1,0,.4.2.6.6.6,1v15.4c0,.3-.1.5-.2.7-.2.2-.5.4-.8.4H5.2c-.4,0-.8-.3-1-.6,0-.3,0-.7,0-1h10.3c.3,0,.6,0,.9-.1.5-.2.9-.6,1.1-1.1.1-.3.1-.6.1-.9V2.3h0Z"/>
</svg>