<?xml version="1.0" encoding="UTF-8"?>
<svg id="Layer_1" xmlns="http://www.w3.org/2000/svg" version="1.1" viewBox="0 0 20 20">
  <!-- Generator: Adobe Illustrator 29.0.0, SVG Export Plug-In . SVG Version: 2.1.0 Build 186)  -->
  <defs>
    <style>
      .st0 {
        fill: #3b64d3;
        stroke: #3b64d3;
        stroke-miterlimit: 10;
        stroke-width: 0px;
      }
    </style>
  </defs>
  <path class="st0" d="M1.7,5.4C3.1,1.6,7.5-.8,11.5.2c.8.2,1.5.7,2.1,1.3,1.1.1,2.2.6,2.8,1.5,1.6,2,1.8,4.7,1.7,7.2.9.6.9,1.8.6,2.8-.9.9-.9,2.3-2,3.1-1.2,1.1-2.8.9-4.2.9-1.2-.1-2.4.1-3.6-.1-.9-.3-1.1-1.7-.2-2.1.8-.3,2-.2,2.4.6,1.2,0,2.4.1,3.6-.1.8-.1,1.4-.8,1.7-1.5-.2,0-.5,0-.7-.1.1-3.2-.1-6.7-2.3-9.2-.5,1-1.2,1.9-2.3,2.4-2,1.1-4.5.8-6.5,1.9-.9.5-1.2,1.6-1.3,2.6h-.7c0,.6,0,1.3.3,1.8.3.5.8.6,1.1.8.7,2.1,2.3,4,4.6,4.4,1.7.2,3.5,0,5.3.1-2.2,1.8-5.5,2-7.9.5-1.5-.9-2.5-2.3-3.2-3.8-1.2-.6-1.8-1.9-1.7-3.2,0-2.2-.2-4.5.6-6.6h0Z"/>
</svg>