<?xml version="1.0" encoding="UTF-8"?>
<svg xmlns="http://www.w3.org/2000/svg" xmlns:xlink="http://www.w3.org/1999/xlink" width="23px" height="23px" viewBox="0 0 23 23" version="1.1">
<g id="surface1">
<path style="fill-rule:nonzero;fill:rgb(0%,36.078432%,60.784316%);fill-opacity:1;stroke-width:20;stroke-linecap:butt;stroke-linejoin:miter;stroke:rgb(0%,36.078432%,60.784316%);stroke-opacity:1;stroke-miterlimit:4;" d="M 325 105.027174 L 250 105.027174 C 247.214674 105.027174 244.972826 102.785326 244.972826 100 L 244.972826 25 C 244.972826 22.214674 247.214674 19.972826 250 19.972826 C 252.785326 19.972826 255.027174 22.214674 255.027174 25 L 255.027174 94.972826 L 325 94.972826 C 327.785326 94.972826 330.027174 97.214674 330.027174 100 C 330.027174 102.785326 327.785326 105.027174 325 105.027174 Z M 325 105.027174 " transform="matrix(0.0575,0,0,0.0575,0,0)"/>
<path style="fill-rule:nonzero;fill:rgb(0%,36.078432%,60.784316%);fill-opacity:1;stroke-width:20;stroke-linecap:butt;stroke-linejoin:miter;stroke:rgb(0%,36.078432%,60.784316%);stroke-opacity:1;stroke-miterlimit:4;" d="M 300 380.027174 L 100 380.027174 C 83.423913 380.027174 69.972826 366.576087 69.972826 350 L 69.972826 50 C 69.972826 33.423913 83.423913 19.972826 100 19.972826 L 250 19.972826 C 251.358696 19.972826 252.581522 20.516304 253.532609 21.467391 L 328.532609 96.467391 C 329.483696 97.418478 330.027174 98.641304 330.027174 100 L 330.027174 350 C 330.027174 366.576087 316.576087 380.027174 300 380.027174 Z M 100 30.027174 C 88.92663 30.027174 80.027174 38.92663 80.027174 50 L 80.027174 350 C 80.027174 361.07337 88.92663 369.972826 100 369.972826 L 300 369.972826 C 311.07337 369.972826 319.972826 361.07337 319.972826 350 L 319.972826 102.038043 L 247.961957 30.027174 Z M 100 30.027174 " transform="matrix(0.0575,0,0,0.0575,0,0)"/>
<path style="fill-rule:nonzero;fill:rgb(0%,36.078432%,60.784316%);fill-opacity:1;stroke-width:20;stroke-linecap:butt;stroke-linejoin:miter;stroke:rgb(0%,36.078432%,60.784316%);stroke-opacity:1;stroke-miterlimit:4;" d="M 275 180.027174 L 125 180.027174 C 122.214674 180.027174 119.972826 177.785326 119.972826 175 C 119.972826 172.214674 122.214674 169.972826 125 169.972826 L 275 169.972826 C 277.785326 169.972826 280.027174 172.214674 280.027174 175 C 280.027174 177.785326 277.785326 180.027174 275 180.027174 Z M 275 180.027174 " transform="matrix(0.0575,0,0,0.0575,0,0)"/>
<path style="fill-rule:nonzero;fill:rgb(0%,36.078432%,60.784316%);fill-opacity:1;stroke-width:20;stroke-linecap:butt;stroke-linejoin:miter;stroke:rgb(0%,36.078432%,60.784316%);stroke-opacity:1;stroke-miterlimit:4;" d="M 275 230.027174 L 125 230.027174 C 122.214674 230.027174 119.972826 227.785326 119.972826 225 C 119.972826 222.214674 122.214674 219.972826 125 219.972826 L 275 219.972826 C 277.785326 219.972826 280.027174 222.214674 280.027174 225 C 280.027174 227.785326 277.785326 230.027174 275 230.027174 Z M 275 230.027174 " transform="matrix(0.0575,0,0,0.0575,0,0)"/>
<path style="fill-rule:nonzero;fill:rgb(0%,36.078432%,60.784316%);fill-opacity:1;stroke-width:20;stroke-linecap:butt;stroke-linejoin:miter;stroke:rgb(0%,36.078432%,60.784316%);stroke-opacity:1;stroke-miterlimit:4;" d="M 275 280.027174 L 125 280.027174 C 122.214674 280.027174 119.972826 277.785326 119.972826 275 C 119.972826 272.214674 122.214674 269.972826 125 269.972826 L 275 269.972826 C 277.785326 269.972826 280.027174 272.214674 280.027174 275 C 280.027174 277.785326 277.785326 280.027174 275 280.027174 Z M 275 280.027174 " transform="matrix(0.0575,0,0,0.0575,0,0)"/>
<path style="fill-rule:nonzero;fill:rgb(0%,36.078432%,60.784316%);fill-opacity:1;stroke-width:20;stroke-linecap:butt;stroke-linejoin:miter;stroke:rgb(0%,36.078432%,60.784316%);stroke-opacity:1;stroke-miterlimit:4;" d="M 200 330.027174 L 125 330.027174 C 122.214674 330.027174 119.972826 327.785326 119.972826 325 C 119.972826 322.214674 122.214674 319.972826 125 319.972826 L 200 319.972826 C 202.785326 319.972826 205.027174 322.214674 205.027174 325 C 205.027174 327.785326 202.785326 330.027174 200 330.027174 Z M 200 330.027174 " transform="matrix(0.0575,0,0,0.0575,0,0)"/>
</g>
</svg>
